<svg xmlns="http://www.w3.org/2000/svg" width="32" height="32" viewBox="0 0 32 32">
    <g fill="none" fill-rule="evenodd">
        <path fill="#0D5CB6" d="M27.713 3.92h-.097c-.284.015-.552.021-.819.021A16.01 16.01 0 0 1 17.114.725 2.358 2.358 0 0 0 15.687.25c-.518 0-1.014.165-1.426.476A15.95 15.95 0 0 1 3.799 3.922l-.055-.001c-1.28 0-2.349.934-2.424 2.158-.255 4.17.101 8.767 1.486 13.046 2.03 6.272 5.973 10.725 12.222 12.531a2.362 2.362 0 0 0 1.32 0c6.252-1.806 10.195-6.259 12.225-12.53 1.385-4.28 1.74-8.876 1.484-13.047-.075-1.217-1.108-2.16-2.344-2.16zm0 1.5c.453 0 .822.335.847.751.246 4-.096 8.42-1.414 12.492-1.888 5.832-5.488 9.897-11.214 11.552a.875.875 0 0 1-.486 0C9.72 28.562 6.12 24.496 4.233 18.664c-1.318-4.072-1.66-8.493-1.416-12.492.025-.407.418-.75.915-.75h.014a17.41 17.41 0 0 0 11.417-3.497.857.857 0 0 1 .524-.174c.194 0 .373.06.524.173a17.471 17.471 0 0 0 10.586 3.518c.292 0 .586-.007.872-.022h.044z"/>
        <path fill="#E2EBF6" d="M27.713 5.42c.453 0 .822.335.847.751.246 4-.096 8.42-1.414 12.492-1.888 5.832-5.488 9.897-11.214 11.552a.875.875 0 0 1-.486 0C9.72 28.562 6.12 24.496 4.233 18.664c-1.318-4.072-1.66-8.493-1.416-12.492.025-.407.418-.75.915-.75h.014a17.41 17.41 0 0 0 11.417-3.497.857.857 0 0 1 .524-.174c.194 0 .373.06.524.173a17.471 17.471 0 0 0 10.586 3.518c.292 0 .586-.007.872-.022h.044z"/>
        <path fill="#0D5CB6" d="M14.752 18.808l-3.768-3.699a.8.8 0 0 0-1.12 1.142l4.4 4.32a.8.8 0 0 0 1.185-.072l7.183-9a.8.8 0 0 0-1.25-.998l-6.63 8.307z"/>
    </g>
</svg>
