<svg xmlns="http://www.w3.org/2000/svg" width="32" height="32" viewBox="0 0 32 32">
    <g fill="none" fill-rule="evenodd">
        <path fill="#0D5CB6" d="M6 2h20a4 4 0 0 1 4 4v20a4 4 0 0 1-4 4H6a4 4 0 0 1-4-4V6a4 4 0 0 1 4-4zm0 1.5A2.5 2.5 0 0 0 3.5 6v20A2.5 2.5 0 0 0 6 28.5h20a2.5 2.5 0 0 0 2.5-2.5V6A2.5 2.5 0 0 0 26 3.5H6z"/>
        <path fill="#E2EBF6" d="M6 3.5A2.5 2.5 0 0 0 3.5 6v20A2.5 2.5 0 0 0 6 28.5h20a2.5 2.5 0 0 0 2.5-2.5V6A2.5 2.5 0 0 0 26 3.5H6z"/>
        <path fill="#0D5CB6" d="M21 13.636H9.8l1.236-1.236a.82.82 0 1 0-1.16-1.16L7.24 13.876a.82.82 0 0 0 0 1.16l2.636 2.636a.817.817 0 0 0 1.16 0 .82.82 0 0 0 0-1.16l-1.235-1.235H21c1.001 0 1.816.814 1.816 1.815A1.818 1.818 0 0 1 21 18.908h-5.272a.82.82 0 0 0 0 1.64H21a3.46 3.46 0 0 0 3.456-3.456A3.46 3.46 0 0 0 21 13.636z"/>
    </g>
</svg>
